<svg xmlns="http://www.w3.org/2000/svg" viewBox="0 0 1200 720" width="1200" height="720">
  <defs>
    <linearGradient id="fireGrad" x1="0" y1="0" x2="1" y2="0">
      <stop offset="0%" stop-color="#ef5350"/>
      <stop offset="50%" stop-color="#ff9800"/>
      <stop offset="100%" stop-color="#ffc107"/>
    </linearGradient>
    <linearGradient id="fireBarGrad" x1="0" y1="0" x2="1" y2="0">
      <stop offset="0%" stop-color="#ef5350"/>
      <stop offset="100%" stop-color="#ff9800"/>
    </linearGradient>
    <linearGradient id="fireBarBg" x1="0" y1="0" x2="0" y2="1">
      <stop offset="0%" stop-color="#2a1a15"/>
      <stop offset="100%" stop-color="#1a1a25"/>
    </linearGradient>
    <linearGradient id="projectionGrad" x1="0" y1="0" x2="0" y2="1">
      <stop offset="0%" stop-color="rgba(201,160,78,0.3)"/>
      <stop offset="100%" stop-color="rgba(201,160,78,0.02)"/>
    </linearGradient>
  </defs>
  
  <!-- Window Frame -->
  <rect width="1200" height="720" rx="12" fill="#0a0a0f"/>
  
  <!-- Sidebar -->
  <rect x="0" y="0" width="220" height="720" fill="#12121a" rx="12"/>
  <rect x="220" y="0" width="1" height="720" fill="#1f1f2e"/>
  
  <!-- Sidebar Logo -->
  <rect x="18" y="18" width="36" height="36" rx="8" fill="rgba(201,160,78,0.15)"/>
  <text x="36" y="42" font-family="system-ui,sans-serif" font-size="16" fill="#c9a04e" text-anchor="middle">💰</text>
  <text x="66" y="34" font-family="system-ui,sans-serif" font-size="15" font-weight="600" fill="#c9a04e">Loot Council</text>
  <text x="66" y="50" font-family="system-ui,sans-serif" font-size="10" fill="#7a8290">Personal Finance</text>
  
  <!-- Profile -->
  <rect x="12" y="68" width="196" height="36" rx="8" fill="rgba(26,26,37,0.5)"/>
  <circle cx="32" cy="86" r="10" fill="rgba(201,160,78,0.2)"/>
  <text x="48" y="90" font-family="system-ui,sans-serif" font-size="12" fill="#e8e6e3">Jordan &amp; Sarah</text>
  
  <!-- Nav Items -->
  <text x="44" y="140" font-family="system-ui,sans-serif" font-size="13" fill="#7a8290">📊  Budget</text>
  <text x="44" y="176" font-family="system-ui,sans-serif" font-size="13" fill="#7a8290">📋  Transactions</text>
  <text x="44" y="212" font-family="system-ui,sans-serif" font-size="13" fill="#7a8290">🏦  Accounts</text>
  <text x="44" y="248" font-family="system-ui,sans-serif" font-size="13" fill="#7a8290">📈  Investments</text>
  <text x="44" y="284" font-family="system-ui,sans-serif" font-size="13" fill="#7a8290">📊  Reports</text>
  <!-- Active -->
  <rect x="4" y="300" width="4" height="32" rx="2" fill="#c9a04e"/>
  <rect x="12" y="298" width="196" height="36" rx="8" fill="rgba(201,160,78,0.1)"/>
  <text x="44" y="320" font-family="system-ui,sans-serif" font-size="13" font-weight="600" fill="#c9a04e">🔥  FIRE</text>
  <text x="44" y="356" font-family="system-ui,sans-serif" font-size="13" fill="#7a8290">🤖  Assistant</text>
  <text x="44" y="694" font-family="system-ui,sans-serif" font-size="13" fill="#7a8290">⚙️  Settings</text>

  <!-- Main Content -->
  <!-- Header -->
  <rect x="242" y="18" width="36" height="36" rx="8" fill="rgba(239,83,80,0.15)"/>
  <text x="260" y="42" font-family="system-ui,sans-serif" font-size="15" fill="#ef5350" text-anchor="middle">🔥</text>
  <text x="290" y="38" font-family="system-ui,sans-serif" font-size="20" font-weight="700" fill="#e8e6e3">FIRE Calculator</text>
  
  <rect x="1100" y="20" width="80" height="30" rx="6" fill="#1a1a25" stroke="#1f1f2e" stroke-width="1"/>
  <text x="1140" y="39" font-family="system-ui,sans-serif" font-size="10" fill="#7a8290" text-anchor="middle">⚙️ Settings</text>
  
  <!-- Main Progress Card -->
  <rect x="240" y="62" width="940" height="120" rx="12" fill="url(#fireBarBg)" stroke="rgba(239,83,80,0.2)" stroke-width="1"/>
  
  <!-- Left side: Progress -->
  <text x="270" y="88" font-family="system-ui,sans-serif" font-size="11" fill="rgba(255,152,0,0.7)">Progress to FIRE</text>
  <text x="270" y="128" font-family="system-ui,sans-serif" font-size="42" font-weight="800" fill="#ff9800">47.3%</text>
  
  <!-- Right side: FIRE Number -->
  <text x="950" y="88" font-family="system-ui,sans-serif" font-size="11" fill="rgba(201,160,78,0.7)" text-anchor="end">FIRE Number</text>
  <text x="950" y="128" font-family="system-ui,sans-serif" font-size="42" font-weight="800" fill="#c9a04e" text-anchor="end">$750,000</text>
  
  <!-- Progress Bar -->
  <rect x="270" y="146" width="660" height="10" rx="5" fill="rgba(26,26,37,0.8)"/>
  <rect x="270" y="146" width="312" height="10" rx="5" fill="url(#fireBarGrad)"/>
  <!-- Progress marker -->
  <circle cx="582" cy="151" r="6" fill="#ff9800" stroke="#0a0a0f" stroke-width="2"/>
  
  <text x="270" y="170" font-family="system-ui,sans-serif" font-size="9" fill="#7a8290">Current: $354,975</text>
  <text x="930" y="170" font-family="system-ui,sans-serif" font-size="9" fill="#7a8290" text-anchor="end">Remaining: $395,025</text>
  
  <!-- Three Column Cards -->
  <!-- Years to FIRE -->
  <rect x="240" y="196" width="300" height="100" rx="12" fill="#12121a" stroke="#1f1f2e" stroke-width="1"/>
  <text x="260" y="220" font-family="system-ui,sans-serif" font-size="11" fill="#7a8290">Years to FIRE</text>
  <text x="260" y="264" font-family="system-ui,sans-serif" font-size="40" font-weight="800" fill="#e8e6e3">12.4</text>
  <text x="340" y="264" font-family="system-ui,sans-serif" font-size="14" fill="#7a8290"> years</text>
  <text x="260" y="284" font-family="system-ui,sans-serif" font-size="10" fill="#5cb882">FIRE at age 44</text>
  
  <!-- Annual Savings Needed -->
  <rect x="560" y="196" width="300" height="100" rx="12" fill="#12121a" stroke="#1f1f2e" stroke-width="1"/>
  <text x="580" y="220" font-family="system-ui,sans-serif" font-size="11" fill="#7a8290">Annual Savings Needed</text>
  <text x="580" y="264" font-family="system-ui,sans-serif" font-size="36" font-weight="800" fill="#e8e6e3">$31,856</text>
  <text x="580" y="284" font-family="system-ui,sans-serif" font-size="10" fill="#7a8290">$2,655/month</text>
  
  <!-- Target Expenses -->
  <rect x="880" y="196" width="300" height="100" rx="12" fill="#12121a" stroke="#1f1f2e" stroke-width="1"/>
  <text x="900" y="220" font-family="system-ui,sans-serif" font-size="11" fill="#7a8290">Target Annual Expenses</text>
  <text x="900" y="264" font-family="system-ui,sans-serif" font-size="36" font-weight="800" fill="#e8e6e3">$30,000</text>
  <text x="900" y="284" font-family="system-ui,sans-serif" font-size="10" fill="#7a8290">$2,500/month · SWR 4%</text>
  
  <!-- Projection Chart Area -->
  <rect x="240" y="310" width="940" height="400" rx="12" fill="#12121a" stroke="#1f1f2e" stroke-width="1"/>
  <text x="270" y="336" font-family="system-ui,sans-serif" font-size="13" font-weight="600" fill="#e8e6e3">Net Worth Projection</text>
  <text x="270" y="352" font-family="system-ui,sans-serif" font-size="10" fill="#7a8290">Projected growth at 8% annual return, 2.5% inflation</text>
  
  <!-- Y-axis labels -->
  <text x="282" y="378" font-family="monospace" font-size="9" fill="#555" text-anchor="end">$800k</text>
  <text x="282" y="428" font-family="monospace" font-size="9" fill="#555" text-anchor="end">$600k</text>
  <text x="282" y="478" font-family="monospace" font-size="9" fill="#555" text-anchor="end">$400k</text>
  <text x="282" y="528" font-family="monospace" font-size="9" fill="#555" text-anchor="end">$200k</text>
  <text x="282" y="578" font-family="monospace" font-size="9" fill="#555" text-anchor="end">$0</text>
  
  <!-- Grid lines -->
  <line x1="290" y1="374" x2="1160" y2="374" stroke="#1f1f2e" stroke-width="1"/>
  <line x1="290" y1="424" x2="1160" y2="424" stroke="#1f1f2e" stroke-width="1"/>
  <line x1="290" y1="474" x2="1160" y2="474" stroke="#1f1f2e" stroke-width="1"/>
  <line x1="290" y1="524" x2="1160" y2="524" stroke="#1f1f2e" stroke-width="1"/>
  <line x1="290" y1="574" x2="1160" y2="574" stroke="#1f1f2e" stroke-width="1"/>
  
  <!-- FIRE target line (dashed) -->
  <line x1="290" y1="394" x2="1160" y2="394" stroke="#ff9800" stroke-width="1" stroke-dasharray="6,4" opacity="0.5"/>
  <text x="1160" y="390" font-family="system-ui,sans-serif" font-size="8" fill="#ff9800" text-anchor="end">FIRE Target: $750k</text>
  
  <!-- Projection curve (area fill) -->
  <path d="M 290 530 C 350 528, 400 524, 450 518 C 500 510, 550 500, 600 488 C 650 474, 700 458, 750 440 C 800 420, 850 398, 900 378 C 920 370, 940 362, 960 356 C 1000 342, 1040 330, 1080 320 C 1120 310, 1140 304, 1160 298 L 1160 574 L 290 574 Z" fill="url(#projectionGrad)"/>
  
  <!-- Projection curve (line) -->
  <path d="M 290 530 C 350 528, 400 524, 450 518 C 500 510, 550 500, 600 488 C 650 474, 700 458, 750 440 C 800 420, 850 398, 900 378 C 920 370, 940 362, 960 356 C 1000 342, 1040 330, 1080 320 C 1120 310, 1140 304, 1160 298" fill="none" stroke="#c9a04e" stroke-width="2.5"/>
  
  <!-- Current position dot -->
  <circle cx="290" cy="530" r="5" fill="#c9a04e" stroke="#0a0a0f" stroke-width="2"/>
  <text x="300" y="546" font-family="system-ui,sans-serif" font-size="8" fill="#c9a04e">Today</text>
  
  <!-- FIRE intersection point -->
  <circle cx="900" cy="378" r="6" fill="#ff9800" stroke="#0a0a0f" stroke-width="2"/>
  <rect x="848" y="356" width="104" height="18" rx="4" fill="rgba(255,152,0,0.15)"/>
  <text x="900" y="368" font-family="system-ui,sans-serif" font-size="9" font-weight="600" fill="#ff9800" text-anchor="middle">🔥 FIRE in 2038</text>
  
  <!-- X-axis labels -->
  <text x="290" y="596" font-family="system-ui,sans-serif" font-size="9" fill="#7a8290" text-anchor="middle">2026</text>
  <text x="420" y="596" font-family="system-ui,sans-serif" font-size="9" fill="#7a8290" text-anchor="middle">2028</text>
  <text x="550" y="596" font-family="system-ui,sans-serif" font-size="9" fill="#7a8290" text-anchor="middle">2030</text>
  <text x="680" y="596" font-family="system-ui,sans-serif" font-size="9" fill="#7a8290" text-anchor="middle">2032</text>
  <text x="810" y="596" font-family="system-ui,sans-serif" font-size="9" fill="#7a8290" text-anchor="middle">2034</text>
  <text x="940" y="596" font-family="system-ui,sans-serif" font-size="9" fill="#7a8290" text-anchor="middle">2036</text>
  <text x="1070" y="596" font-family="system-ui,sans-serif" font-size="9" fill="#7a8290" text-anchor="middle">2038</text>
  
  <!-- Settings Summary at bottom -->
  <rect x="270" y="612" width="880" height="36" rx="8" fill="rgba(26,26,37,0.5)"/>
  <text x="290" y="634" font-family="system-ui,sans-serif" font-size="10" fill="#7a8290">
    Age: 31  •  SWR: 4.0%  •  Expected Return: 8.0%  •  Inflation: 2.5%  •  Super included: Yes
  </text>
  
  <!-- Legend -->
  <line x1="800" y1="626" x2="820" y2="626" stroke="#c9a04e" stroke-width="2"/>
  <text x="826" y="630" font-family="system-ui,sans-serif" font-size="9" fill="#7a8290">Projected Net Worth</text>
  <line x1="940" y1="626" x2="960" y2="626" stroke="#ff9800" stroke-width="1" stroke-dasharray="4,3"/>
  <text x="966" y="630" font-family="system-ui,sans-serif" font-size="9" fill="#7a8290">FIRE Target</text>
</svg>