<svg xmlns="http://www.w3.org/2000/svg" viewBox="0 0 1200 720" width="1200" height="720">
  <defs>
    <linearGradient id="netWorthLine" x1="0" y1="0" x2="1" y2="0">
      <stop offset="0%" stop-color="#96782e"/>
      <stop offset="100%" stop-color="#d9b56a"/>
    </linearGradient>
    <linearGradient id="netWorthArea" x1="0" y1="0" x2="0" y2="1">
      <stop offset="0%" stop-color="rgba(201,160,78,0.25)"/>
      <stop offset="100%" stop-color="rgba(201,160,78,0.02)"/>
    </linearGradient>
  </defs>
  
  <!-- Window Frame -->
  <rect width="1200" height="720" rx="12" fill="#0a0a0f"/>
  
  <!-- Sidebar -->
  <rect x="0" y="0" width="220" height="720" fill="#12121a" rx="12"/>
  <rect x="220" y="0" width="1" height="720" fill="#1f1f2e"/>
  
  <!-- Sidebar Logo -->
  <rect x="18" y="18" width="36" height="36" rx="8" fill="rgba(201,160,78,0.15)"/>
  <text x="36" y="42" font-family="system-ui,sans-serif" font-size="16" fill="#c9a04e" text-anchor="middle">💰</text>
  <text x="66" y="34" font-family="system-ui,sans-serif" font-size="15" font-weight="600" fill="#c9a04e">Loot Council</text>
  <text x="66" y="50" font-family="system-ui,sans-serif" font-size="10" fill="#7a8290">Personal Finance</text>
  
  <!-- Profile -->
  <rect x="12" y="68" width="196" height="36" rx="8" fill="rgba(26,26,37,0.5)"/>
  <circle cx="32" cy="86" r="10" fill="rgba(201,160,78,0.2)"/>
  <text x="48" y="90" font-family="system-ui,sans-serif" font-size="12" fill="#e8e6e3">Jordan &amp; Sarah</text>
  
  <!-- Nav Items -->
  <text x="44" y="140" font-family="system-ui,sans-serif" font-size="13" fill="#7a8290">📊  Budget</text>
  <text x="44" y="176" font-family="system-ui,sans-serif" font-size="13" fill="#7a8290">📋  Transactions</text>
  <text x="44" y="212" font-family="system-ui,sans-serif" font-size="13" fill="#7a8290">🏦  Accounts</text>
  <!-- Active -->
  <rect x="4" y="228" width="4" height="32" rx="2" fill="#c9a04e"/>
  <rect x="12" y="226" width="196" height="36" rx="8" fill="rgba(201,160,78,0.1)"/>
  <text x="44" y="248" font-family="system-ui,sans-serif" font-size="13" font-weight="600" fill="#c9a04e">📈  Investments</text>
  <text x="44" y="284" font-family="system-ui,sans-serif" font-size="13" fill="#7a8290">📊  Reports</text>
  <text x="44" y="320" font-family="system-ui,sans-serif" font-size="13" fill="#7a8290">🔥  FIRE</text>
  <text x="44" y="356" font-family="system-ui,sans-serif" font-size="13" fill="#7a8290">🤖  Assistant</text>
  <text x="44" y="694" font-family="system-ui,sans-serif" font-size="13" fill="#7a8290">⚙️  Settings</text>

  <!-- Main Content -->
  <!-- Header -->
  <rect x="242" y="18" width="36" height="36" rx="8" fill="rgba(201,160,78,0.15)"/>
  <text x="260" y="42" font-family="system-ui,sans-serif" font-size="15" fill="#c9a04e" text-anchor="middle">📈</text>
  <text x="290" y="38" font-family="system-ui,sans-serif" font-size="20" font-weight="700" fill="#e8e6e3">Investment Portfolio</text>
  
  <!-- Top Controls -->
  <rect x="1000" y="20" width="80" height="30" rx="6" fill="#1a1a25" stroke="#1f1f2e" stroke-width="1"/>
  <text x="1040" y="39" font-family="system-ui,sans-serif" font-size="10" fill="#7a8290" text-anchor="middle">🔄 Refresh</text>
  <rect x="1090" y="20" width="90" height="30" rx="6" fill="rgba(201,160,78,0.15)" stroke="#c9a04e" stroke-width="1"/>
  <text x="1135" y="39" font-family="system-ui,sans-serif" font-size="11" font-weight="500" fill="#c9a04e" text-anchor="middle">+ Add Asset</text>
  
  <!-- Summary Cards Row -->
  <!-- Card 1: Net Worth -->
  <rect x="240" y="62" width="225" height="80" rx="10" fill="#12121a" stroke="#1f1f2e" stroke-width="1"/>
  <text x="260" y="82" font-family="system-ui,sans-serif" font-size="10" fill="#7a8290">Net Worth (AUD)</text>
  <text x="260" y="108" font-family="system-ui,sans-serif" font-size="22" font-weight="700" fill="#c9a04e">$187,420</text>
  <text x="260" y="126" font-family="system-ui,sans-serif" font-size="9" fill="#7a8290">Cash: $24,800 + Investments: $162,620</text>
  
  <!-- Card 2: Investments -->
  <rect x="477" y="62" width="225" height="80" rx="10" fill="#12121a" stroke="#1f1f2e" stroke-width="1"/>
  <text x="497" y="82" font-family="system-ui,sans-serif" font-size="10" fill="#7a8290">Investments (AUD)</text>
  <text x="497" y="108" font-family="system-ui,sans-serif" font-size="22" font-weight="700" fill="#e8e6e3">$162,620</text>
  <text x="497" y="126" font-family="system-ui,sans-serif" font-size="9" fill="#7a8290">Cost basis: $128,340</text>
  
  <!-- Card 3: Return -->
  <rect x="714" y="62" width="225" height="80" rx="10" fill="#12121a" stroke="#1f1f2e" stroke-width="1"/>
  <text x="734" y="82" font-family="system-ui,sans-serif" font-size="10" fill="#7a8290">Investment Return</text>
  <text x="734" y="108" font-family="system-ui,sans-serif" font-size="22" font-weight="700" fill="#5cb882">+$34,280</text>
  <text x="838" y="108" font-family="system-ui,sans-serif" font-size="12" fill="#5cb882"> ↑</text>
  <text x="734" y="126" font-family="system-ui,sans-serif" font-size="9" fill="#5cb882">+26.7% all time</text>
  
  <!-- Card 4: Dividends -->
  <rect x="951" y="62" width="225" height="80" rx="10" fill="#12121a" stroke="#1f1f2e" stroke-width="1"/>
  <text x="971" y="82" font-family="system-ui,sans-serif" font-size="10" fill="#7a8290">Annual Dividends</text>
  <text x="971" y="108" font-family="system-ui,sans-serif" font-size="22" font-weight="700" fill="#e8e6e3">$3,840</text>
  <text x="971" y="126" font-family="system-ui,sans-serif" font-size="9" fill="#7a8290">$320/month</text>
  
  <!-- Tabs -->
  <text x="260" y="170" font-family="system-ui,sans-serif" font-size="12" fill="#7a8290">📈 Overview</text>
  <text x="360" y="170" font-family="system-ui,sans-serif" font-size="12" font-weight="600" fill="#c9a04e">👛 Holdings</text>
  <rect x="360" y="176" width="72" height="2" fill="#c9a04e"/>
  <text x="470" y="170" font-family="system-ui,sans-serif" font-size="12" fill="#7a8290">📊 Allocation</text>
  <text x="580" y="170" font-family="system-ui,sans-serif" font-size="12" fill="#7a8290">💵 Capital Gains</text>
  <rect x="240" y="180" width="940" height="1" fill="#1f1f2e"/>
  
  <!-- Holdings Table Header -->
  <rect x="240" y="192" width="940" height="32" rx="0" fill="#1a1a25"/>
  <text x="268" y="212" font-family="system-ui,sans-serif" font-size="10" font-weight="600" fill="#7a8290" letter-spacing="0.5">SYMBOL</text>
  <text x="370" y="212" font-family="system-ui,sans-serif" font-size="10" font-weight="600" fill="#7a8290" letter-spacing="0.5">NAME</text>
  <text x="590" y="212" font-family="system-ui,sans-serif" font-size="10" font-weight="600" fill="#7a8290" text-anchor="end" letter-spacing="0.5">QTY</text>
  <text x="700" y="212" font-family="system-ui,sans-serif" font-size="10" font-weight="600" fill="#7a8290" text-anchor="end" letter-spacing="0.5">COST</text>
  <text x="810" y="212" font-family="system-ui,sans-serif" font-size="10" font-weight="600" fill="#7a8290" text-anchor="end" letter-spacing="0.5">PRICE</text>
  <text x="930" y="212" font-family="system-ui,sans-serif" font-size="10" font-weight="600" fill="#7a8290" text-anchor="end" letter-spacing="0.5">VALUE</text>
  <text x="1040" y="212" font-family="system-ui,sans-serif" font-size="10" font-weight="600" fill="#7a8290" text-anchor="end" letter-spacing="0.5">RETURN</text>
  <text x="1160" y="212" font-family="system-ui,sans-serif" font-size="10" font-weight="600" fill="#7a8290" text-anchor="end" letter-spacing="0.5">RET%</text>
  
  <!-- Holdings Rows -->
  <!-- VAS -->
  <rect x="240" y="226" width="940" height="42" fill="transparent"/>
  <rect x="260" y="234" width="40" height="22" rx="4" fill="rgba(92,184,130,0.1)"/>
  <text x="280" y="249" font-family="monospace" font-size="11" font-weight="700" fill="#5cb882" text-anchor="middle">VAS</text>
  <text x="370" y="252" font-family="system-ui,sans-serif" font-size="12" fill="#e8e6e3">Vanguard Australian Shares ETF</text>
  <text x="590" y="252" font-family="monospace" font-size="12" fill="#e8e6e3" text-anchor="end">350</text>
  <text x="700" y="252" font-family="monospace" font-size="12" fill="#7a8290" text-anchor="end">$28,420</text>
  <text x="810" y="252" font-family="monospace" font-size="12" fill="#e8e6e3" text-anchor="end">$98.50</text>
  <text x="930" y="252" font-family="monospace" font-size="12" fill="#e8e6e3" text-anchor="end">$34,475</text>
  <text x="1040" y="252" font-family="monospace" font-size="12" fill="#5cb882" text-anchor="end">+$6,055</text>
  <text x="1160" y="252" font-family="monospace" font-size="12" fill="#5cb882" text-anchor="end">+21.3%</text>
  <rect x="240" y="268" width="940" height="1" fill="#1f1f2e" opacity="0.4"/>
  
  <!-- VGS -->
  <rect x="240" y="270" width="940" height="42" fill="rgba(18,18,26,0.3)"/>
  <rect x="260" y="278" width="40" height="22" rx="4" fill="rgba(92,184,130,0.1)"/>
  <text x="280" y="293" font-family="monospace" font-size="11" font-weight="700" fill="#5cb882" text-anchor="middle">VGS</text>
  <text x="370" y="296" font-family="system-ui,sans-serif" font-size="12" fill="#e8e6e3">Vanguard Intl Shares ETF</text>
  <text x="590" y="296" font-family="monospace" font-size="12" fill="#e8e6e3" text-anchor="end">420</text>
  <text x="700" y="296" font-family="monospace" font-size="12" fill="#7a8290" text-anchor="end">$38,640</text>
  <text x="810" y="296" font-family="monospace" font-size="12" fill="#e8e6e3" text-anchor="end">$122.30</text>
  <text x="930" y="296" font-family="monospace" font-size="12" fill="#e8e6e3" text-anchor="end">$51,366</text>
  <text x="1040" y="296" font-family="monospace" font-size="12" fill="#5cb882" text-anchor="end">+$12,726</text>
  <text x="1160" y="296" font-family="monospace" font-size="12" fill="#5cb882" text-anchor="end">+32.9%</text>
  <rect x="240" y="312" width="940" height="1" fill="#1f1f2e" opacity="0.4"/>
  
  <!-- BTC -->
  <rect x="240" y="314" width="940" height="42" fill="transparent"/>
  <rect x="260" y="322" width="40" height="22" rx="4" fill="rgba(201,160,78,0.1)"/>
  <text x="280" y="337" font-family="monospace" font-size="11" font-weight="700" fill="#c9a04e" text-anchor="middle">BTC</text>
  <text x="370" y="340" font-family="system-ui,sans-serif" font-size="12" fill="#e8e6e3">Bitcoin</text>
  <text x="590" y="340" font-family="monospace" font-size="12" fill="#e8e6e3" text-anchor="end">0.45</text>
  <text x="700" y="340" font-family="monospace" font-size="12" fill="#7a8290" text-anchor="end">$22,500</text>
  <text x="810" y="340" font-family="monospace" font-size="12" fill="#e8e6e3" text-anchor="end">$85,240</text>
  <text x="930" y="340" font-family="monospace" font-size="12" fill="#e8e6e3" text-anchor="end">$38,358</text>
  <text x="1040" y="340" font-family="monospace" font-size="12" fill="#5cb882" text-anchor="end">+$15,858</text>
  <text x="1160" y="340" font-family="monospace" font-size="12" fill="#5cb882" text-anchor="end">+70.5%</text>
  <rect x="240" y="356" width="940" height="1" fill="#1f1f2e" opacity="0.4"/>
  
  <!-- ETH -->
  <rect x="240" y="358" width="940" height="42" fill="rgba(18,18,26,0.3)"/>
  <rect x="260" y="366" width="40" height="22" rx="4" fill="rgba(139,143,216,0.1)"/>
  <text x="280" y="381" font-family="monospace" font-size="11" font-weight="700" fill="#8b8fd8" text-anchor="middle">ETH</text>
  <text x="370" y="384" font-family="system-ui,sans-serif" font-size="12" fill="#e8e6e3">Ethereum</text>
  <text x="590" y="384" font-family="monospace" font-size="12" fill="#e8e6e3" text-anchor="end">3.20</text>
  <text x="700" y="384" font-family="monospace" font-size="12" fill="#7a8290" text-anchor="end">$8,960</text>
  <text x="810" y="384" font-family="monospace" font-size="12" fill="#e8e6e3" text-anchor="end">$3,180</text>
  <text x="930" y="384" font-family="monospace" font-size="12" fill="#e8e6e3" text-anchor="end">$10,176</text>
  <text x="1040" y="384" font-family="monospace" font-size="12" fill="#5cb882" text-anchor="end">+$1,216</text>
  <text x="1160" y="384" font-family="monospace" font-size="12" fill="#5cb882" text-anchor="end">+13.6%</text>
  <rect x="240" y="400" width="940" height="1" fill="#1f1f2e" opacity="0.4"/>
  
  <!-- NDQ - down -->
  <rect x="240" y="402" width="940" height="42" fill="transparent"/>
  <rect x="260" y="410" width="40" height="22" rx="4" fill="rgba(217,112,112,0.1)"/>
  <text x="280" y="425" font-family="monospace" font-size="11" font-weight="700" fill="#d97070" text-anchor="middle">NDQ</text>
  <text x="370" y="428" font-family="system-ui,sans-serif" font-size="12" fill="#e8e6e3">BetaShares NASDAQ 100</text>
  <text x="590" y="428" font-family="monospace" font-size="12" fill="#e8e6e3" text-anchor="end">180</text>
  <text x="700" y="428" font-family="monospace" font-size="12" fill="#7a8290" text-anchor="end">$18,720</text>
  <text x="810" y="428" font-family="monospace" font-size="12" fill="#e8e6e3" text-anchor="end">$96.80</text>
  <text x="930" y="428" font-family="monospace" font-size="12" fill="#e8e6e3" text-anchor="end">$17,424</text>
  <text x="1040" y="428" font-family="monospace" font-size="12" fill="#d97070" text-anchor="end">-$1,296</text>
  <text x="1160" y="428" font-family="monospace" font-size="12" fill="#d97070" text-anchor="end">-6.9%</text>
  <rect x="240" y="444" width="940" height="1" fill="#1f1f2e" opacity="0.4"/>
  
  <!-- Property -->
  <rect x="240" y="446" width="940" height="42" fill="rgba(18,18,26,0.3)"/>
  <rect x="260" y="454" width="40" height="22" rx="4" fill="rgba(106,159,214,0.1)"/>
  <text x="280" y="469" font-family="monospace" font-size="9" font-weight="700" fill="#6a9fd6" text-anchor="middle">PROP</text>
  <text x="370" y="472" font-family="system-ui,sans-serif" font-size="12" fill="#e8e6e3">Investment Property (Share)</text>
  <text x="590" y="472" font-family="monospace" font-size="12" fill="#e8e6e3" text-anchor="end">1</text>
  <text x="700" y="472" font-family="monospace" font-size="12" fill="#7a8290" text-anchor="end">$11,100</text>
  <text x="810" y="472" font-family="monospace" font-size="12" fill="#e8e6e3" text-anchor="end">—</text>
  <text x="930" y="472" font-family="monospace" font-size="12" fill="#e8e6e3" text-anchor="end">$10,821</text>
  <text x="1040" y="472" font-family="monospace" font-size="12" fill="#d97070" text-anchor="end">-$279</text>
  <text x="1160" y="472" font-family="monospace" font-size="12" fill="#d97070" text-anchor="end">-2.5%</text>
  <rect x="240" y="488" width="940" height="1" fill="#1f1f2e" opacity="0.4"/>
  
  <!-- Allocation Mini Bar -->
  <rect x="240" y="510" width="940" height="60" rx="10" fill="#12121a" stroke="#1f1f2e" stroke-width="1"/>
  <text x="260" y="530" font-family="system-ui,sans-serif" font-size="10" font-weight="600" fill="#7a8290">ASSET ALLOCATION</text>
  
  <!-- Allocation bar -->
  <rect x="260" y="538" width="900" height="16" rx="8" fill="#1a1a25"/>
  <rect x="260" y="538" width="315" height="16" rx="8" fill="#5cb882"/>
  <rect x="575" y="538" width="180" height="16" fill="#8b8fd8"/>
  <rect x="755" y="538" width="162" height="16" fill="#c9a04e"/>
  <rect x="917" y="538" width="108" height="16" fill="#6a9fd6"/>
  <rect x="1025" y="538" width="72" height="16" fill="#d97070"/>
  <rect x="1097" y="538" width="63" height="16" rx="0 8 8 0" fill="#d4a540"/>
  
  <!-- Allocation Legend -->
  <circle cx="270" cy="560" r="4" fill="#5cb882"/>
  <text x="280" y="563" font-family="system-ui,sans-serif" font-size="9" fill="#7a8290">ETF 35%</text>
  
  <circle cx="340" cy="560" r="4" fill="#8b8fd8"/>
  <text x="350" y="563" font-family="system-ui,sans-serif" font-size="9" fill="#7a8290">Crypto 20%</text>
  
  <circle cx="425" cy="560" r="4" fill="#c9a04e"/>
  <text x="435" y="563" font-family="system-ui,sans-serif" font-size="9" fill="#7a8290">Stocks 18%</text>
  
  <circle cx="510" cy="560" r="4" fill="#6a9fd6"/>
  <text x="520" y="563" font-family="system-ui,sans-serif" font-size="9" fill="#7a8290">Super 12%</text>
  
  <circle cx="585" cy="560" r="4" fill="#d97070"/>
  <text x="595" y="563" font-family="system-ui,sans-serif" font-size="9" fill="#7a8290">Property 8%</text>
  
  <circle cx="672" cy="560" r="4" fill="#d4a540"/>
  <text x="682" y="563" font-family="system-ui,sans-serif" font-size="9" fill="#7a8290">Cash 7%</text>
  
  <!-- Recommendation Banner -->
  <rect x="240" y="582" width="940" height="44" rx="10" fill="rgba(201,160,78,0.06)" stroke="rgba(201,160,78,0.2)" stroke-width="1"/>
  <text x="260" y="600" font-family="system-ui,sans-serif" font-size="11" fill="#c9a04e">🎯</text>
  <text x="280" y="600" font-family="system-ui,sans-serif" font-size="12" fill="#c9a04e">Recommendation:</text>
  <text x="400" y="600" font-family="system-ui,sans-serif" font-size="12" fill="#e8e6e3">Invest next $2,000 into </text>
  <text x="586" y="600" font-family="system-ui,sans-serif" font-size="12" font-weight="600" fill="#c9a04e">VAS (Australian ETF)</text>
  <text x="748" y="600" font-family="system-ui,sans-serif" font-size="12" fill="#e8e6e3"> to reach target allocation</text>
  <text x="280" y="618" font-family="system-ui,sans-serif" font-size="10" fill="#7a8290">Current: 29% → Target: 35%  •  Shortfall: $9,680</text>
</svg>