<svg xmlns="http://www.w3.org/2000/svg" viewBox="0 0 1200 720" width="1200" height="720">
  <defs>
    <linearGradient id="incomeBar" x1="0" y1="0" x2="0" y2="1">
      <stop offset="0%" stop-color="#5cb882"/>
      <stop offset="100%" stop-color="#3d9966"/>
    </linearGradient>
    <linearGradient id="expenseBar" x1="0" y1="0" x2="0" y2="1">
      <stop offset="0%" stop-color="#d97070"/>
      <stop offset="100%" stop-color="#b55555"/>
    </linearGradient>
  </defs>
  
  <!-- Window Frame -->
  <rect width="1200" height="720" rx="12" fill="#0a0a0f"/>
  
  <!-- Sidebar -->
  <rect x="0" y="0" width="220" height="720" fill="#12121a" rx="12"/>
  <rect x="220" y="0" width="1" height="720" fill="#1f1f2e"/>
  
  <!-- Sidebar Logo -->
  <rect x="18" y="18" width="36" height="36" rx="8" fill="rgba(201,160,78,0.15)"/>
  <text x="36" y="42" font-family="system-ui,sans-serif" font-size="16" fill="#c9a04e" text-anchor="middle">💰</text>
  <text x="66" y="34" font-family="system-ui,sans-serif" font-size="15" font-weight="600" fill="#c9a04e">Loot Council</text>
  <text x="66" y="50" font-family="system-ui,sans-serif" font-size="10" fill="#7a8290">Personal Finance</text>
  
  <!-- Profile -->
  <rect x="12" y="68" width="196" height="36" rx="8" fill="rgba(26,26,37,0.5)"/>
  <circle cx="32" cy="86" r="10" fill="rgba(201,160,78,0.2)"/>
  <text x="48" y="90" font-family="system-ui,sans-serif" font-size="12" fill="#e8e6e3">Jordan &amp; Sarah</text>
  
  <!-- Nav Items -->
  <text x="44" y="140" font-family="system-ui,sans-serif" font-size="13" fill="#7a8290">📊  Budget</text>
  <text x="44" y="176" font-family="system-ui,sans-serif" font-size="13" fill="#7a8290">📋  Transactions</text>
  <text x="44" y="212" font-family="system-ui,sans-serif" font-size="13" fill="#7a8290">🏦  Accounts</text>
  <text x="44" y="248" font-family="system-ui,sans-serif" font-size="13" fill="#7a8290">📈  Investments</text>
  <!-- Active -->
  <rect x="4" y="264" width="4" height="32" rx="2" fill="#c9a04e"/>
  <rect x="12" y="262" width="196" height="36" rx="8" fill="rgba(201,160,78,0.1)"/>
  <text x="44" y="284" font-family="system-ui,sans-serif" font-size="13" font-weight="600" fill="#c9a04e">📊  Reports</text>
  <text x="44" y="320" font-family="system-ui,sans-serif" font-size="13" fill="#7a8290">🔥  FIRE</text>
  <text x="44" y="356" font-family="system-ui,sans-serif" font-size="13" fill="#7a8290">🤖  Assistant</text>
  <text x="44" y="694" font-family="system-ui,sans-serif" font-size="13" fill="#7a8290">⚙️  Settings</text>

  <!-- Main Content -->
  <!-- Header -->
  <rect x="242" y="18" width="36" height="36" rx="8" fill="rgba(201,160,78,0.15)"/>
  <text x="260" y="42" font-family="system-ui,sans-serif" font-size="15" fill="#c9a04e" text-anchor="middle">📊</text>
  <text x="290" y="38" font-family="system-ui,sans-serif" font-size="20" font-weight="700" fill="#e8e6e3">Reports</text>
  
  <!-- Tabs -->
  <text x="260" y="78" font-family="system-ui,sans-serif" font-size="12" fill="#7a8290">Spending</text>
  <text x="358" y="78" font-family="system-ui,sans-serif" font-size="12" font-weight="600" fill="#c9a04e">Income v Expense</text>
  <rect x="358" y="84" width="115" height="2" fill="#c9a04e"/>
  <text x="510" y="78" font-family="system-ui,sans-serif" font-size="12" fill="#7a8290">Budget v Actual</text>
  <text x="640" y="78" font-family="system-ui,sans-serif" font-size="12" fill="#7a8290">Net Worth</text>
  <text x="740" y="78" font-family="system-ui,sans-serif" font-size="12" fill="#7a8290">By Payee</text>
  <text x="830" y="78" font-family="system-ui,sans-serif" font-size="12" fill="#7a8290">Category Trends</text>
  <rect x="240" y="88" width="940" height="1" fill="#1f1f2e"/>
  
  <!-- Date Range Presets -->
  <rect x="240" y="100" width="44" height="26" rx="6" fill="#1a1a25" stroke="#1f1f2e" stroke-width="1"/>
  <text x="262" y="117" font-family="system-ui,sans-serif" font-size="10" fill="#7a8290" text-anchor="middle">3m</text>
  <rect x="290" y="100" width="44" height="26" rx="6" fill="#1a1a25" stroke="#1f1f2e" stroke-width="1"/>
  <text x="312" y="117" font-family="system-ui,sans-serif" font-size="10" fill="#7a8290" text-anchor="middle">6m</text>
  <rect x="340" y="100" width="44" height="26" rx="6" fill="rgba(201,160,78,0.15)" stroke="#c9a04e" stroke-width="1"/>
  <text x="362" y="117" font-family="system-ui,sans-serif" font-size="10" font-weight="600" fill="#c9a04e" text-anchor="middle">1y</text>
  <rect x="390" y="100" width="44" height="26" rx="6" fill="#1a1a25" stroke="#1f1f2e" stroke-width="1"/>
  <text x="412" y="117" font-family="system-ui,sans-serif" font-size="10" fill="#7a8290" text-anchor="middle">2y</text>
  <rect x="440" y="100" width="44" height="26" rx="6" fill="#1a1a25" stroke="#1f1f2e" stroke-width="1"/>
  <text x="462" y="117" font-family="system-ui,sans-serif" font-size="10" fill="#7a8290" text-anchor="middle">All</text>

  <!-- Summary Cards -->
  <rect x="240" y="136" width="220" height="60" rx="10" fill="#12121a" stroke="#1f1f2e" stroke-width="1"/>
  <text x="260" y="158" font-family="system-ui,sans-serif" font-size="10" fill="#7a8290">Avg Monthly Income</text>
  <text x="260" y="180" font-family="system-ui,sans-serif" font-size="18" font-weight="700" fill="#5cb882">$8,247</text>
  
  <rect x="480" y="136" width="220" height="60" rx="10" fill="#12121a" stroke="#1f1f2e" stroke-width="1"/>
  <text x="500" y="158" font-family="system-ui,sans-serif" font-size="10" fill="#7a8290">Avg Monthly Expenses</text>
  <text x="500" y="180" font-family="system-ui,sans-serif" font-size="18" font-weight="700" fill="#d97070">$5,623</text>
  
  <rect x="720" y="136" width="220" height="60" rx="10" fill="#12121a" stroke="#1f1f2e" stroke-width="1"/>
  <text x="740" y="158" font-family="system-ui,sans-serif" font-size="10" fill="#7a8290">Avg Monthly Net</text>
  <text x="740" y="180" font-family="system-ui,sans-serif" font-size="18" font-weight="700" fill="#c9a04e">+$2,624</text>
  
  <rect x="960" y="136" width="220" height="60" rx="10" fill="#12121a" stroke="#1f1f2e" stroke-width="1"/>
  <text x="980" y="158" font-family="system-ui,sans-serif" font-size="10" fill="#7a8290">Savings Rate</text>
  <text x="980" y="180" font-family="system-ui,sans-serif" font-size="18" font-weight="700" fill="#5cb882">31.8%</text>
  
  <!-- Chart Area -->
  <rect x="240" y="210" width="940" height="490" rx="12" fill="#12121a" stroke="#1f1f2e" stroke-width="1"/>
  
  <!-- Y-axis labels -->
  <text x="268" y="248" font-family="monospace" font-size="9" fill="#555" text-anchor="end">$10k</text>
  <text x="268" y="308" font-family="monospace" font-size="9" fill="#555" text-anchor="end">$8k</text>
  <text x="268" y="368" font-family="monospace" font-size="9" fill="#555" text-anchor="end">$6k</text>
  <text x="268" y="428" font-family="monospace" font-size="9" fill="#555" text-anchor="end">$4k</text>
  <text x="268" y="488" font-family="monospace" font-size="9" fill="#555" text-anchor="end">$2k</text>
  <text x="268" y="548" font-family="monospace" font-size="9" fill="#555" text-anchor="end">$0</text>
  
  <!-- Grid lines -->
  <line x1="280" y1="244" x2="1160" y2="244" stroke="#1f1f2e" stroke-width="1"/>
  <line x1="280" y1="304" x2="1160" y2="304" stroke="#1f1f2e" stroke-width="1"/>
  <line x1="280" y1="364" x2="1160" y2="364" stroke="#1f1f2e" stroke-width="1"/>
  <line x1="280" y1="424" x2="1160" y2="424" stroke="#1f1f2e" stroke-width="1"/>
  <line x1="280" y1="484" x2="1160" y2="484" stroke="#1f1f2e" stroke-width="1"/>
  <line x1="280" y1="544" x2="1160" y2="544" stroke="#1f1f2e" stroke-width="1"/>
  
  <!-- X-axis months and bars -->
  <!-- Apr 2025 -->
  <rect x="296" y="308" width="28" height="236" rx="4" fill="url(#incomeBar)" opacity="0.85"/>
  <rect x="328" y="364" width="28" height="180" rx="4" fill="url(#expenseBar)" opacity="0.85"/>
  <text x="326" y="564" font-family="system-ui,sans-serif" font-size="9" fill="#7a8290" text-anchor="middle">Apr</text>
  
  <!-- May 2025 -->
  <rect x="370" y="296" width="28" height="248" rx="4" fill="url(#incomeBar)" opacity="0.85"/>
  <rect x="402" y="372" width="28" height="172" rx="4" fill="url(#expenseBar)" opacity="0.85"/>
  <text x="400" y="564" font-family="system-ui,sans-serif" font-size="9" fill="#7a8290" text-anchor="middle">May</text>
  
  <!-- Jun 2025 -->
  <rect x="444" y="300" width="28" height="244" rx="4" fill="url(#incomeBar)" opacity="0.85"/>
  <rect x="476" y="356" width="28" height="188" rx="4" fill="url(#expenseBar)" opacity="0.85"/>
  <text x="474" y="564" font-family="system-ui,sans-serif" font-size="9" fill="#7a8290" text-anchor="middle">Jun</text>
  
  <!-- Jul 2025 -->
  <rect x="518" y="304" width="28" height="240" rx="4" fill="url(#incomeBar)" opacity="0.85"/>
  <rect x="550" y="380" width="28" height="164" rx="4" fill="url(#expenseBar)" opacity="0.85"/>
  <text x="548" y="564" font-family="system-ui,sans-serif" font-size="9" fill="#7a8290" text-anchor="middle">Jul</text>
  
  <!-- Aug 2025 -->
  <rect x="592" y="294" width="28" height="250" rx="4" fill="url(#incomeBar)" opacity="0.85"/>
  <rect x="624" y="352" width="28" height="192" rx="4" fill="url(#expenseBar)" opacity="0.85"/>
  <text x="622" y="564" font-family="system-ui,sans-serif" font-size="9" fill="#7a8290" text-anchor="middle">Aug</text>
  
  <!-- Sep 2025 -->
  <rect x="666" y="298" width="28" height="246" rx="4" fill="url(#incomeBar)" opacity="0.85"/>
  <rect x="698" y="340" width="28" height="204" rx="4" fill="url(#expenseBar)" opacity="0.85"/>
  <text x="696" y="564" font-family="system-ui,sans-serif" font-size="9" fill="#7a8290" text-anchor="middle">Sep</text>
  
  <!-- Oct 2025 -->
  <rect x="740" y="302" width="28" height="242" rx="4" fill="url(#incomeBar)" opacity="0.85"/>
  <rect x="772" y="370" width="28" height="174" rx="4" fill="url(#expenseBar)" opacity="0.85"/>
  <text x="770" y="564" font-family="system-ui,sans-serif" font-size="9" fill="#7a8290" text-anchor="middle">Oct</text>
  
  <!-- Nov 2025 -->
  <rect x="814" y="296" width="28" height="248" rx="4" fill="url(#incomeBar)" opacity="0.85"/>
  <rect x="846" y="358" width="28" height="186" rx="4" fill="url(#expenseBar)" opacity="0.85"/>
  <text x="844" y="564" font-family="system-ui,sans-serif" font-size="9" fill="#7a8290" text-anchor="middle">Nov</text>
  
  <!-- Dec 2025 - Holiday spending spike -->
  <rect x="888" y="282" width="28" height="262" rx="4" fill="url(#incomeBar)" opacity="0.85"/>
  <rect x="920" y="310" width="28" height="234" rx="4" fill="url(#expenseBar)" opacity="0.85"/>
  <text x="918" y="564" font-family="system-ui,sans-serif" font-size="9" fill="#7a8290" text-anchor="middle">Dec</text>
  
  <!-- Jan 2026 -->
  <rect x="962" y="304" width="28" height="240" rx="4" fill="url(#incomeBar)" opacity="0.85"/>
  <rect x="994" y="368" width="28" height="176" rx="4" fill="url(#expenseBar)" opacity="0.85"/>
  <text x="992" y="564" font-family="system-ui,sans-serif" font-size="9" fill="#7a8290" text-anchor="middle">Jan</text>
  
  <!-- Feb 2026 -->
  <rect x="1036" y="300" width="28" height="244" rx="4" fill="url(#incomeBar)" opacity="0.85"/>
  <rect x="1068" y="362" width="28" height="182" rx="4" fill="url(#expenseBar)" opacity="0.85"/>
  <text x="1066" y="564" font-family="system-ui,sans-serif" font-size="9" fill="#7a8290" text-anchor="middle">Feb</text>
  
  <!-- Mar 2026 (current, highlighted) -->
  <rect x="1110" y="296" width="28" height="248" rx="4" fill="url(#incomeBar)"/>
  <rect x="1108" y="294" width="32" height="252" rx="5" fill="none" stroke="#c9a04e" stroke-width="1" stroke-dasharray="4,2" opacity="0.5"/>
  <rect x="1142" y="356" width="28" height="188" rx="4" fill="url(#expenseBar)"/>
  <text x="1140" y="564" font-family="system-ui,sans-serif" font-size="9" font-weight="600" fill="#c9a04e" text-anchor="middle">Mar</text>
  
  <!-- Legend -->
  <rect x="520" y="580" width="12" height="12" rx="3" fill="#5cb882"/>
  <text x="538" y="590" font-family="system-ui,sans-serif" font-size="11" fill="#7a8290">Income</text>
  <rect x="600" y="580" width="12" height="12" rx="3" fill="#d97070"/>
  <text x="618" y="590" font-family="system-ui,sans-serif" font-size="11" fill="#7a8290">Expenses</text>
  
  <!-- Tooltip (hovering Dec) -->
  <rect x="860" y="260" width="130" height="58" rx="8" fill="#1a1a25" stroke="#2d2d40" stroke-width="1"/>
  <text x="876" y="278" font-family="system-ui,sans-serif" font-size="10" font-weight="600" fill="#e8e6e3">December 2025</text>
  <text x="876" y="296" font-family="system-ui,sans-serif" font-size="10" fill="#5cb882">Income: $8,740</text>
  <text x="876" y="310" font-family="system-ui,sans-serif" font-size="10" fill="#d97070">Expense: $7,800</text>
</svg>