<svg xmlns="http://www.w3.org/2000/svg" viewBox="0 0 1200 720" width="1200" height="720">
  <defs>
    <clipPath id="rounded"><rect width="1200" height="720" rx="12"/></clipPath>
  </defs>
  
  <!-- Window Frame -->
  <rect width="1200" height="720" rx="12" fill="#0a0a0f"/>
  
  <!-- Sidebar -->
  <rect x="0" y="0" width="220" height="720" fill="#12121a" rx="12"/>
  <rect x="220" y="0" width="1" height="720" fill="#1f1f2e"/>
  
  <!-- Sidebar Logo -->
  <rect x="18" y="18" width="36" height="36" rx="8" fill="rgba(201,160,78,0.15)"/>
  <text x="36" y="42" font-family="system-ui,sans-serif" font-size="16" fill="#c9a04e" text-anchor="middle">💰</text>
  <text x="66" y="34" font-family="system-ui,sans-serif" font-size="15" font-weight="600" fill="#c9a04e">Loot Council</text>
  <text x="66" y="50" font-family="system-ui,sans-serif" font-size="10" fill="#7a8290">Personal Finance</text>
  
  <!-- Profile -->
  <rect x="12" y="68" width="196" height="36" rx="8" fill="rgba(26,26,37,0.5)"/>
  <circle cx="32" cy="86" r="10" fill="rgba(201,160,78,0.2)"/>
  <text x="48" y="90" font-family="system-ui,sans-serif" font-size="12" fill="#e8e6e3">Jordan &amp; Sarah</text>
  
  <!-- Nav Items -->
  <text x="44" y="140" font-family="system-ui,sans-serif" font-size="13" fill="#7a8290">📊  Budget</text>
  <!-- Active -->
  <rect x="4" y="152" width="4" height="32" rx="2" fill="#c9a04e"/>
  <rect x="12" y="150" width="196" height="36" rx="8" fill="rgba(201,160,78,0.1)"/>
  <text x="44" y="173" font-family="system-ui,sans-serif" font-size="13" font-weight="600" fill="#c9a04e">📋  Transactions</text>
  <text x="44" y="212" font-family="system-ui,sans-serif" font-size="13" fill="#7a8290">🏦  Accounts</text>
  <text x="44" y="248" font-family="system-ui,sans-serif" font-size="13" fill="#7a8290">📈  Investments</text>
  <text x="44" y="284" font-family="system-ui,sans-serif" font-size="13" fill="#7a8290">📊  Reports</text>
  <text x="44" y="320" font-family="system-ui,sans-serif" font-size="13" fill="#7a8290">🔥  FIRE</text>
  <text x="44" y="356" font-family="system-ui,sans-serif" font-size="13" fill="#7a8290">🤖  Assistant</text>
  <text x="44" y="694" font-family="system-ui,sans-serif" font-size="13" fill="#7a8290">⚙️  Settings</text>
  
  <!-- Main Content -->
  <!-- Header -->
  <rect x="242" y="18" width="36" height="36" rx="8" fill="rgba(201,160,78,0.15)"/>
  <text x="260" y="42" font-family="system-ui,sans-serif" font-size="15" fill="#c9a04e" text-anchor="middle">📋</text>
  <text x="290" y="38" font-family="system-ui,sans-serif" font-size="20" font-weight="700" fill="#e8e6e3">Transactions</text>
  
  <!-- Tabs -->
  <rect x="240" y="62" width="940" height="36" rx="0" fill="transparent"/>
  <text x="260" y="84" font-family="system-ui,sans-serif" font-size="13" font-weight="600" fill="#c9a04e">All Transactions</text>
  <rect x="260" y="90" width="110" height="2" fill="#c9a04e"/>
  <text x="400" y="84" font-family="system-ui,sans-serif" font-size="13" fill="#7a8290">Scheduled</text>
  <rect x="240" y="94" width="940" height="1" fill="#1f1f2e"/>
  
  <!-- Controls Row -->
  <rect x="240" y="106" width="220" height="32" rx="6" fill="#1a1a25" stroke="#1f1f2e" stroke-width="1"/>
  <text x="258" y="126" font-family="system-ui,sans-serif" font-size="11" fill="#7a8290">🔍 Search transactions...</text>
  
  <rect x="470" y="106" width="80" height="32" rx="6" fill="#1a1a25" stroke="#1f1f2e" stroke-width="1"/>
  <text x="510" y="126" font-family="system-ui,sans-serif" font-size="11" fill="#7a8290" text-anchor="middle">🔽 Filter</text>
  
  <rect x="1060" y="106" width="120" height="32" rx="6" fill="rgba(201,160,78,0.15)" stroke="#c9a04e" stroke-width="1"/>
  <text x="1120" y="126" font-family="system-ui,sans-serif" font-size="12" font-weight="500" fill="#c9a04e" text-anchor="middle">+ New</text>
  
  <rect x="960" y="106" width="90" height="32" rx="6" fill="#1a1a25" stroke="#1f1f2e" stroke-width="1"/>
  <text x="1005" y="126" font-family="system-ui,sans-serif" font-size="11" fill="#7a8290" text-anchor="middle">📤 CSV</text>

  <!-- Table Header -->
  <rect x="240" y="150" width="940" height="32" rx="0" fill="#1a1a25"/>
  <rect x="240" y="150" width="30" height="32" fill="#1a1a25"/>
  <rect x="258" y="160" width="12" height="12" rx="2" fill="transparent" stroke="#7a8290" stroke-width="1"/>
  <text x="296" y="170" font-family="system-ui,sans-serif" font-size="10" font-weight="600" fill="#7a8290" letter-spacing="0.5">DATE</text>
  <text x="400" y="170" font-family="system-ui,sans-serif" font-size="10" font-weight="600" fill="#7a8290" letter-spacing="0.5">PAYEE</text>
  <text x="620" y="170" font-family="system-ui,sans-serif" font-size="10" font-weight="600" fill="#7a8290" letter-spacing="0.5">CATEGORY</text>
  <text x="800" y="170" font-family="system-ui,sans-serif" font-size="10" font-weight="600" fill="#7a8290" letter-spacing="0.5">MEMO</text>
  <text x="1040" y="170" font-family="system-ui,sans-serif" font-size="10" font-weight="600" fill="#7a8290" text-anchor="end" letter-spacing="0.5">AMOUNT</text>
  <text x="1140" y="170" font-family="system-ui,sans-serif" font-size="10" font-weight="600" fill="#7a8290" text-anchor="end" letter-spacing="0.5">STATUS</text>
  
  <!-- Transaction Rows -->
  <!-- Row 1 -->
  <rect x="240" y="182" width="940" height="40" fill="transparent"/>
  <rect x="258" y="196" width="12" height="12" rx="2" fill="transparent" stroke="#7a8290" stroke-width="1"/>
  <text x="296" y="207" font-family="system-ui,sans-serif" font-size="12" fill="#7a8290">20 Mar</text>
  <text x="400" y="207" font-family="system-ui,sans-serif" font-size="12" fill="#e8e6e3">Woolworths</text>
  <text x="620" y="207" font-family="system-ui,sans-serif" font-size="12" fill="#7a8290">Groceries</text>
  <text x="800" y="207" font-family="system-ui,sans-serif" font-size="11" fill="#555">Weekly shop</text>
  <text x="1040" y="207" font-family="monospace" font-size="12" fill="#d97070" text-anchor="end">-$142.67</text>
  <circle cx="1140" cy="202" r="8" fill="rgba(92,184,130,0.15)"/>
  <text x="1140" y="206" font-family="system-ui,sans-serif" font-size="10" fill="#5cb882" text-anchor="middle">✓</text>
  <rect x="240" y="222" width="940" height="1" fill="#1f1f2e" opacity="0.4"/>
  
  <!-- Row 2 -->
  <rect x="240" y="223" width="940" height="40" fill="rgba(18,18,26,0.3)"/>
  <rect x="258" y="237" width="12" height="12" rx="2" fill="transparent" stroke="#7a8290" stroke-width="1"/>
  <text x="296" y="248" font-family="system-ui,sans-serif" font-size="12" fill="#7a8290">19 Mar</text>
  <text x="400" y="248" font-family="system-ui,sans-serif" font-size="12" fill="#e8e6e3">Shell Petrol</text>
  <text x="620" y="248" font-family="system-ui,sans-serif" font-size="12" fill="#7a8290">Transport</text>
  <text x="800" y="248" font-family="system-ui,sans-serif" font-size="11" fill="#555">Fuel</text>
  <text x="1040" y="248" font-family="monospace" font-size="12" fill="#d97070" text-anchor="end">-$87.50</text>
  <circle cx="1140" cy="243" r="8" fill="rgba(92,184,130,0.15)"/>
  <text x="1140" y="247" font-family="system-ui,sans-serif" font-size="10" fill="#5cb882" text-anchor="middle">✓</text>
  <rect x="240" y="263" width="940" height="1" fill="#1f1f2e" opacity="0.4"/>
  
  <!-- Row 3 - Income -->
  <rect x="240" y="264" width="940" height="40" fill="transparent"/>
  <rect x="258" y="278" width="12" height="12" rx="2" fill="transparent" stroke="#7a8290" stroke-width="1"/>
  <text x="296" y="289" font-family="system-ui,sans-serif" font-size="12" fill="#7a8290">18 Mar</text>
  <text x="400" y="289" font-family="system-ui,sans-serif" font-size="12" fill="#e8e6e3">Employer Pty Ltd</text>
  <text x="620" y="289" font-family="system-ui,sans-serif" font-size="12" fill="#7a8290">Income</text>
  <text x="800" y="289" font-family="system-ui,sans-serif" font-size="11" fill="#555">Salary - March</text>
  <text x="1040" y="289" font-family="monospace" font-size="12" fill="#5cb882" text-anchor="end">+$4,120.00</text>
  <circle cx="1140" cy="284" r="8" fill="rgba(92,184,130,0.15)"/>
  <text x="1140" y="288" font-family="system-ui,sans-serif" font-size="10" fill="#5cb882" text-anchor="middle">✓</text>
  <rect x="240" y="304" width="940" height="1" fill="#1f1f2e" opacity="0.4"/>
  
  <!-- Row 4 -->
  <rect x="240" y="305" width="940" height="40" fill="rgba(18,18,26,0.3)"/>
  <rect x="258" y="319" width="12" height="12" rx="2" fill="transparent" stroke="#7a8290" stroke-width="1"/>
  <text x="296" y="330" font-family="system-ui,sans-serif" font-size="12" fill="#7a8290">17 Mar</text>
  <text x="400" y="330" font-family="system-ui,sans-serif" font-size="12" fill="#e8e6e3">Netflix</text>
  <text x="620" y="330" font-family="system-ui,sans-serif" font-size="12" fill="#7a8290">Entertainment</text>
  <text x="800" y="330" font-family="system-ui,sans-serif" font-size="11" fill="#555">Monthly sub</text>
  <text x="1040" y="330" font-family="monospace" font-size="12" fill="#d97070" text-anchor="end">-$22.99</text>
  <circle cx="1140" cy="325" r="8" fill="rgba(92,184,130,0.15)"/>
  <text x="1140" y="329" font-family="system-ui,sans-serif" font-size="10" fill="#5cb882" text-anchor="middle">✓</text>
  <rect x="240" y="345" width="940" height="1" fill="#1f1f2e" opacity="0.4"/>
  
  <!-- Row 5 -->
  <rect x="240" y="346" width="940" height="40" fill="transparent"/>
  <rect x="258" y="360" width="12" height="12" rx="2" fill="transparent" stroke="#7a8290" stroke-width="1"/>
  <text x="296" y="371" font-family="system-ui,sans-serif" font-size="12" fill="#7a8290">16 Mar</text>
  <text x="400" y="371" font-family="system-ui,sans-serif" font-size="12" fill="#e8e6e3">Domino's Pizza</text>
  <text x="620" y="371" font-family="system-ui,sans-serif" font-size="12" fill="#7a8290">Dining Out</text>
  <text x="800" y="371" font-family="system-ui,sans-serif" font-size="11" fill="#555">Friday dinner</text>
  <text x="1040" y="371" font-family="monospace" font-size="12" fill="#d97070" text-anchor="end">-$34.95</text>
  <circle cx="1140" cy="366" r="8" fill="rgba(217,160,64,0.15)"/>
  <text x="1140" y="370" font-family="system-ui,sans-serif" font-size="10" fill="#d4a540" text-anchor="middle">○</text>
  <rect x="240" y="386" width="940" height="1" fill="#1f1f2e" opacity="0.4"/>
  
  <!-- Row 6 - Split transaction -->
  <rect x="240" y="387" width="940" height="40" fill="rgba(18,18,26,0.3)"/>
  <rect x="258" y="401" width="12" height="12" rx="2" fill="transparent" stroke="#7a8290" stroke-width="1"/>
  <text x="296" y="412" font-family="system-ui,sans-serif" font-size="12" fill="#7a8290">15 Mar</text>
  <text x="400" y="412" font-family="system-ui,sans-serif" font-size="12" fill="#e8e6e3">Coles</text>
  <rect x="445" y="402" width="32" height="16" rx="4" fill="rgba(139,143,216,0.15)"/>
  <text x="461" y="413" font-family="system-ui,sans-serif" font-size="8" font-weight="600" fill="#8b8fd8" text-anchor="middle">split</text>
  <text x="620" y="412" font-family="system-ui,sans-serif" font-size="12" fill="#7a8290">Multiple</text>
  <text x="800" y="412" font-family="system-ui,sans-serif" font-size="11" fill="#555">Groceries + household</text>
  <text x="1040" y="412" font-family="monospace" font-size="12" fill="#d97070" text-anchor="end">-$98.40</text>
  <circle cx="1140" cy="407" r="8" fill="rgba(92,184,130,0.15)"/>
  <text x="1140" y="411" font-family="system-ui,sans-serif" font-size="10" fill="#5cb882" text-anchor="middle">✓</text>
  <rect x="240" y="427" width="940" height="1" fill="#1f1f2e" opacity="0.4"/>
  
  <!-- Row 7 -->
  <rect x="240" y="428" width="940" height="40" fill="transparent"/>
  <rect x="258" y="442" width="12" height="12" rx="2" fill="transparent" stroke="#7a8290" stroke-width="1"/>
  <text x="296" y="453" font-family="system-ui,sans-serif" font-size="12" fill="#7a8290">14 Mar</text>
  <text x="400" y="453" font-family="system-ui,sans-serif" font-size="12" fill="#e8e6e3">Telstra</text>
  <text x="620" y="453" font-family="system-ui,sans-serif" font-size="12" fill="#7a8290">Phone Plans</text>
  <text x="800" y="453" font-family="system-ui,sans-serif" font-size="11" fill="#555">Mobile plan</text>
  <text x="1040" y="453" font-family="monospace" font-size="12" fill="#d97070" text-anchor="end">-$65.00</text>
  <circle cx="1140" cy="448" r="8" fill="rgba(92,184,130,0.15)"/>
  <text x="1140" y="452" font-family="system-ui,sans-serif" font-size="10" fill="#5cb882" text-anchor="middle">✓</text>
  <rect x="240" y="468" width="940" height="1" fill="#1f1f2e" opacity="0.4"/>
  
  <!-- Row 8 -->
  <rect x="240" y="469" width="940" height="40" fill="rgba(18,18,26,0.3)"/>
  <rect x="258" y="483" width="12" height="12" rx="2" fill="transparent" stroke="#7a8290" stroke-width="1"/>
  <text x="296" y="494" font-family="system-ui,sans-serif" font-size="12" fill="#7a8290">13 Mar</text>
  <text x="400" y="494" font-family="system-ui,sans-serif" font-size="12" fill="#e8e6e3">JB Hi-Fi</text>
  <text x="620" y="494" font-family="system-ui,sans-serif" font-size="12" fill="#7a8290">Electronics</text>
  <text x="800" y="494" font-family="system-ui,sans-serif" font-size="11" fill="#555">Headphones</text>
  <text x="1040" y="494" font-family="monospace" font-size="12" fill="#d97070" text-anchor="end">-$199.00</text>
  <circle cx="1140" cy="489" r="8" fill="rgba(92,184,130,0.15)"/>
  <text x="1140" y="493" font-family="system-ui,sans-serif" font-size="10" fill="#5cb882" text-anchor="middle">✓</text>
  <rect x="240" y="509" width="940" height="1" fill="#1f1f2e" opacity="0.4"/>
  
  <!-- Row 9 - Transfer -->
  <rect x="240" y="510" width="940" height="40" fill="transparent"/>
  <rect x="258" y="524" width="12" height="12" rx="2" fill="transparent" stroke="#7a8290" stroke-width="1"/>
  <text x="296" y="535" font-family="system-ui,sans-serif" font-size="12" fill="#7a8290">12 Mar</text>
  <text x="400" y="535" font-family="system-ui,sans-serif" font-size="12" fill="#6a9fd6">Transfer → Savings</text>
  <text x="620" y="535" font-family="system-ui,sans-serif" font-size="12" fill="#7a8290">—</text>
  <text x="800" y="535" font-family="system-ui,sans-serif" font-size="11" fill="#555">Monthly savings</text>
  <text x="1040" y="535" font-family="monospace" font-size="12" fill="#6a9fd6" text-anchor="end">-$500.00</text>
  <circle cx="1140" cy="530" r="8" fill="rgba(92,184,130,0.15)"/>
  <text x="1140" y="534" font-family="system-ui,sans-serif" font-size="10" fill="#5cb882" text-anchor="middle">✓</text>
  <rect x="240" y="550" width="940" height="1" fill="#1f1f2e" opacity="0.4"/>
  
  <!-- Row 10 -->
  <rect x="240" y="551" width="940" height="40" fill="rgba(18,18,26,0.3)"/>
  <rect x="258" y="565" width="12" height="12" rx="2" fill="transparent" stroke="#7a8290" stroke-width="1"/>
  <text x="296" y="576" font-family="system-ui,sans-serif" font-size="12" fill="#7a8290">11 Mar</text>
  <text x="400" y="576" font-family="system-ui,sans-serif" font-size="12" fill="#e8e6e3">Uber Eats</text>
  <text x="620" y="576" font-family="system-ui,sans-serif" font-size="12" fill="#7a8290">Dining Out</text>
  <text x="800" y="576" font-family="system-ui,sans-serif" font-size="11" fill="#555">Lunch delivery</text>
  <text x="1040" y="576" font-family="monospace" font-size="12" fill="#d97070" text-anchor="end">-$28.50</text>
  <circle cx="1140" cy="571" r="8" fill="rgba(217,160,64,0.15)"/>
  <text x="1140" y="575" font-family="system-ui,sans-serif" font-size="10" fill="#d4a540" text-anchor="middle">○</text>
  <rect x="240" y="591" width="940" height="1" fill="#1f1f2e" opacity="0.4"/>
  
  <!-- Row 11 -->
  <rect x="240" y="592" width="940" height="40" fill="transparent"/>
  <rect x="258" y="606" width="12" height="12" rx="2" fill="transparent" stroke="#7a8290" stroke-width="1"/>
  <text x="296" y="617" font-family="system-ui,sans-serif" font-size="12" fill="#7a8290">10 Mar</text>
  <text x="400" y="617" font-family="system-ui,sans-serif" font-size="12" fill="#e8e6e3">Anytime Fitness</text>
  <text x="620" y="617" font-family="system-ui,sans-serif" font-size="12" fill="#7a8290">Health</text>
  <text x="800" y="617" font-family="system-ui,sans-serif" font-size="11" fill="#555">Gym membership</text>
  <text x="1040" y="617" font-family="monospace" font-size="12" fill="#d97070" text-anchor="end">-$69.90</text>
  <circle cx="1140" cy="612" r="8" fill="rgba(92,184,130,0.15)"/>
  <text x="1140" y="616" font-family="system-ui,sans-serif" font-size="10" fill="#5cb882" text-anchor="middle">✓</text>
  <rect x="240" y="632" width="940" height="1" fill="#1f1f2e" opacity="0.4"/>
  
  <!-- Row 12 -->
  <rect x="240" y="633" width="940" height="40" fill="rgba(18,18,26,0.3)"/>
  <rect x="258" y="647" width="12" height="12" rx="2" fill="transparent" stroke="#7a8290" stroke-width="1"/>
  <text x="296" y="658" font-family="system-ui,sans-serif" font-size="12" fill="#7a8290">09 Mar</text>
  <text x="400" y="658" font-family="system-ui,sans-serif" font-size="12" fill="#e8e6e3">ALDI</text>
  <text x="620" y="658" font-family="system-ui,sans-serif" font-size="12" fill="#7a8290">Groceries</text>
  <text x="800" y="658" font-family="system-ui,sans-serif" font-size="11" fill="#555">Midweek top-up</text>
  <text x="1040" y="658" font-family="monospace" font-size="12" fill="#d97070" text-anchor="end">-$56.30</text>
  <circle cx="1140" cy="653" r="8" fill="rgba(92,184,130,0.15)"/>
  <text x="1140" y="657" font-family="system-ui,sans-serif" font-size="10" fill="#5cb882" text-anchor="middle">✓</text>
  <rect x="240" y="673" width="940" height="1" fill="#1f1f2e" opacity="0.4"/>
  
  <!-- Summary Footer -->
  <rect x="240" y="682" width="940" height="38" rx="0" fill="rgba(26,26,37,0.5)"/>
  <text x="260" y="706" font-family="system-ui,sans-serif" font-size="11" font-weight="600" fill="#7a8290">Showing 12 of 87 transactions</text>
  <text x="900" y="700" font-family="system-ui,sans-serif" font-size="10" fill="#7a8290" text-anchor="end">Net:</text>
  <text x="1040" y="700" font-family="monospace" font-size="13" font-weight="700" fill="#5cb882" text-anchor="end">+$2,814.69</text>
</svg>